<?xml version="1.0" encoding="utf-8"?>
<!-- Generator: Adobe Illustrator 25.0.1, SVG Export Plug-In . SVG Version: 6.00 Build 0)  -->
<svg version="1.0" id="Слой_1" xmlns="http://www.w3.org/2000/svg" xmlns:xlink="http://www.w3.org/1999/xlink" x="0px" y="0px"
	 viewBox="0 0 700 275.28" style="enable-background:new 0 0 700 275.28;" xml:space="preserve">
<style type="text/css">
	.st0{fill:#2A56A3;}
	.st1{fill:#3BB07D;}
</style>
<g>
	<path class="st0" d="M21.12,212.73c-8.7-4.05-15.45-9.9-20.25-17.55l24.08-22.95c6.9,11.1,16.12,16.65,27.68,16.65
		c14.1,0,22.8-8.17,26.1-24.53l15.08-76.5H38.67l5.85-29.25h91.35l-20.93,103.96c-3.9,20.1-10.95,34.5-21.15,43.2
		c-10.2,8.7-24.08,13.05-41.63,13.05C40.16,218.81,29.81,216.78,21.12,212.73z"/>
	<path class="st0" d="M161.97,95.05h34.88l-24.08,121.06h-34.88L161.97,95.05z M170.63,72.89c-3.83-3.52-5.74-7.84-5.74-12.94
		c0-6,2.14-10.99,6.41-14.96c4.28-3.97,9.86-5.96,16.76-5.96c6.15,0,11.14,1.69,14.96,5.06c3.83,3.38,5.74,7.54,5.74,12.49
		c0,6.45-2.18,11.67-6.53,15.64c-4.35,3.98-9.98,5.96-16.88,5.96C179.37,78.18,174.46,76.41,170.63,72.89z"/>
	<path class="st0" d="M278.86,97.08c7.43-2.55,16.16-3.83,26.21-3.83l-6.3,32.4c-4.2-0.3-6.9-0.45-8.1-0.45
		c-10.65,0-19.17,2.63-25.54,7.88c-6.38,5.25-10.69,13.43-12.94,24.53l-11.7,58.5h-35.1l24.08-121.06h33.3l-2.92,14.4
		C265.1,103.75,271.44,99.63,278.86,97.08z"/>
	<path class="st0" d="M447.28,95.05l-24.08,121.06h-33.3l2.25-11.93c-10.05,9.15-22.43,13.73-37.13,13.73
		c-9.45,0-18.15-2.17-26.1-6.53c-7.95-4.35-14.29-10.61-19.01-18.79c-4.72-8.17-7.09-17.81-7.09-28.91
		c0-13.35,2.96-25.39,8.89-36.11c5.92-10.72,13.99-19.13,24.19-25.2c10.2-6.08,21.45-9.11,33.75-9.11c18.6,0,31.73,6.08,39.38,18.23
		l3.15-16.43H447.28z M384.28,183.82c5.4-3.38,9.6-8.06,12.6-14.06c3-6,4.5-12.9,4.5-20.7c0-8.25-2.44-14.77-7.31-19.58
		c-4.88-4.8-11.67-7.2-20.36-7.2c-6.9,0-13.05,1.69-18.45,5.06c-5.4,3.38-9.6,8.06-12.6,14.06c-3,6-4.5,12.9-4.5,20.7
		c0,8.25,2.44,14.78,7.31,19.58c4.87,4.8,11.66,7.2,20.36,7.2C372.73,188.88,378.88,187.19,384.28,183.82z"/>
	<path class="st1" d="M456.73,212.17c-3.9-3.83-5.85-8.66-5.85-14.51c0-6.9,2.25-12.52,6.75-16.88c4.5-4.35,10.05-6.53,16.65-6.53
		c6,0,10.91,1.88,14.74,5.63c3.83,3.75,5.74,8.63,5.74,14.62c0,6.75-2.29,12.34-6.86,16.76c-4.58,4.43-10.01,6.64-16.31,6.64
		C465.58,217.91,460.63,216,456.73,212.17z"/>
	<path class="st1" d="M472.03,254.81l13.95-25.43c4.05,2.85,8.93,4.28,14.63,4.28c4.8,0,8.59-1.43,11.36-4.28
		c2.77-2.85,4.76-7.35,5.96-13.5l24.3-120.83h35.1l-24.08,119.93c-6.15,31.05-23.55,46.58-52.2,46.58
		C489.36,261.56,479.68,259.31,472.03,254.81z M550.9,72.89c-3.83-3.52-5.74-7.84-5.74-12.94c0-6,2.14-10.99,6.41-14.96
		c4.27-3.97,9.86-5.96,16.76-5.96c6.15,0,11.14,1.69,14.96,5.06c3.83,3.38,5.74,7.54,5.74,12.49c0,6.45-2.18,11.67-6.53,15.64
		c-4.35,3.98-9.98,5.96-16.88,5.96C559.63,78.18,554.72,76.41,550.9,72.89z"/>
	<path class="st1" d="M599.95,214.42c-9.38-2.32-16.69-5.36-21.94-9.11l13.5-25.43c5.25,3.45,11.66,6.23,19.24,8.33
		c7.57,2.1,15.19,3.15,22.84,3.15c7.95,0,13.87-1.01,17.78-3.04c3.9-2.03,5.85-4.91,5.85-8.66c0-3-1.73-5.17-5.18-6.53
		c-3.45-1.35-9-2.77-16.65-4.28c-8.7-1.65-15.86-3.45-21.49-5.4c-5.63-1.95-10.5-5.14-14.63-9.56c-4.13-4.42-6.19-10.46-6.19-18.11
		c0-13.35,5.59-23.77,16.76-31.28c11.17-7.5,25.84-11.25,43.99-11.25c8.4,0,16.57,0.9,24.53,2.7c7.95,1.8,14.7,4.27,20.25,7.43
		l-12.6,25.65c-9.9-6.15-21.83-9.23-35.78-9.23c-7.65,0-13.47,1.12-17.44,3.38c-3.98,2.25-5.96,5.1-5.96,8.55
		c0,3.15,1.72,5.44,5.18,6.86c3.45,1.43,9.23,2.96,17.33,4.61c8.55,1.65,15.56,3.41,21.04,5.29c5.47,1.88,10.24,4.99,14.29,9.34
		c4.05,4.35,6.08,10.28,6.08,17.78c0,13.5-5.66,23.93-16.99,31.28c-11.33,7.35-25.99,11.03-43.99,11.03
		C619.26,217.91,609.32,216.74,599.95,214.42z"/>
</g>
</svg>
